<mxfile host="app.diagrams.net" modified="2023-10-27T11:13:44.166Z" agent="Mozilla/5.0 (Windows NT 10.0; Win64; x64) AppleWebKit/537.36 (KHTML, like Gecko) Chrome/118.0.0.0 Safari/537.36" etag="-h1qxwX9EhWRAdeJyYp9" version="22.0.8" type="github">
  <diagram name="Page-1" id="OlIUwpDXIGgurFwwByhu">
    <mxGraphModel dx="981" dy="522" grid="1" gridSize="10" guides="1" tooltips="1" connect="1" arrows="1" fold="1" page="1" pageScale="1" pageWidth="850" pageHeight="1100" math="0" shadow="0">
      <root>
        <mxCell id="0" />
        <mxCell id="1" parent="0" />
        <mxCell id="feag8_f_9WW_3Zf_LPH9-38" value="SmarteWave - Control" style="rounded=0;whiteSpace=wrap;html=1;fillColor=#F2F2F2;strokeColor=#323C40;fontColor=#323C40;align=left;verticalAlign=top;fontStyle=1;fontFamily=Calibri;" vertex="1" parent="1">
          <mxGeometry x="200" y="10" width="560" height="349" as="geometry" />
        </mxCell>
        <mxCell id="feag8_f_9WW_3Zf_LPH9-1" value="FPGA" style="whiteSpace=wrap;html=1;aspect=fixed;fillColor=#A9CBD9;strokeColor=#a9cbd9;fontColor=#323C40;fontFamily=Calibri;" vertex="1" parent="1">
          <mxGeometry x="440" y="109" width="120" height="120" as="geometry" />
        </mxCell>
        <mxCell id="feag8_f_9WW_3Zf_LPH9-3" value="IO" style="rounded=0;whiteSpace=wrap;html=1;fillColor=#A9CBD9;strokeColor=#a9cbd9;fontColor=#323C40;fontFamily=Calibri;" vertex="1" parent="1">
          <mxGeometry x="600" y="109" width="40" height="120" as="geometry" />
        </mxCell>
        <mxCell id="feag8_f_9WW_3Zf_LPH9-11" value="Button" style="rounded=0;whiteSpace=wrap;html=1;fillColor=#A9CBD9;strokeColor=#a9cbd9;fontColor=#323C40;fontFamily=Calibri;" vertex="1" parent="1">
          <mxGeometry x="340" y="39" width="40" height="29" as="geometry" />
        </mxCell>
        <mxCell id="feag8_f_9WW_3Zf_LPH9-22" value="uC" style="rounded=0;whiteSpace=wrap;html=1;fillColor=#A9CBD9;strokeColor=#a9cbd9;fontFamily=Calibri;" vertex="1" parent="1">
          <mxGeometry x="320" y="109" width="80" height="120" as="geometry" />
        </mxCell>
        <mxCell id="feag8_f_9WW_3Zf_LPH9-25" value="PMOD A" style="rounded=0;whiteSpace=wrap;html=1;fillColor=#D9B08C;strokeColor=#F7EFE8;fontColor=#323C40;fontFamily=Calibri;" vertex="1" parent="1">
          <mxGeometry x="680" y="109" width="80" height="40" as="geometry" />
        </mxCell>
        <mxCell id="feag8_f_9WW_3Zf_LPH9-27" value="PMOD B" style="rounded=0;whiteSpace=wrap;html=1;fillColor=#D9B08C;strokeColor=#D9B08C;fontColor=#323C40;fontFamily=Calibri;" vertex="1" parent="1">
          <mxGeometry x="680" y="179" width="80" height="40" as="geometry" />
        </mxCell>
        <mxCell id="feag8_f_9WW_3Zf_LPH9-28" value="Power&lt;br style=&quot;border-color: var(--border-color);&quot;&gt;Management" style="rounded=0;whiteSpace=wrap;html=1;fontColor=#323C40;fontFamily=Calibri;fillColor=#B9A9E8;strokeColor=none;" vertex="1" parent="1">
          <mxGeometry x="280" y="309" width="80" height="40" as="geometry" />
        </mxCell>
        <mxCell id="feag8_f_9WW_3Zf_LPH9-42" value="" style="endArrow=block;startArrow=block;html=1;rounded=0;strokeColor=#323C40;startFill=1;endFill=1;entryX=0;entryY=0.5;entryDx=0;entryDy=0;exitX=1;exitY=0.5;exitDx=0;exitDy=0;" edge="1" parent="1" source="feag8_f_9WW_3Zf_LPH9-1" target="feag8_f_9WW_3Zf_LPH9-3">
          <mxGeometry width="50" height="50" relative="1" as="geometry">
            <mxPoint x="540" y="269" as="sourcePoint" />
            <mxPoint x="590" y="219" as="targetPoint" />
          </mxGeometry>
        </mxCell>
        <mxCell id="feag8_f_9WW_3Zf_LPH9-43" value="" style="endArrow=block;startArrow=block;html=1;rounded=0;strokeColor=#323C40;startFill=1;endFill=1;entryX=0;entryY=0.5;entryDx=0;entryDy=0;exitX=1;exitY=0.5;exitDx=0;exitDy=0;" edge="1" parent="1">
          <mxGeometry width="50" height="50" relative="1" as="geometry">
            <mxPoint x="640" y="128.82999999999998" as="sourcePoint" />
            <mxPoint x="680" y="128.82999999999998" as="targetPoint" />
          </mxGeometry>
        </mxCell>
        <mxCell id="feag8_f_9WW_3Zf_LPH9-44" value="" style="endArrow=block;startArrow=block;html=1;rounded=0;strokeColor=#323C40;startFill=1;endFill=1;entryX=0;entryY=0.5;entryDx=0;entryDy=0;exitX=1;exitY=0.5;exitDx=0;exitDy=0;" edge="1" parent="1">
          <mxGeometry width="50" height="50" relative="1" as="geometry">
            <mxPoint x="640" y="198.82999999999998" as="sourcePoint" />
            <mxPoint x="680" y="198.82999999999998" as="targetPoint" />
          </mxGeometry>
        </mxCell>
        <mxCell id="feag8_f_9WW_3Zf_LPH9-45" value="" style="endArrow=block;startArrow=block;html=1;rounded=0;strokeColor=#323C40;startFill=1;endFill=1;entryX=0;entryY=0.5;entryDx=0;entryDy=0;exitX=1;exitY=0.5;exitDx=0;exitDy=0;" edge="1" parent="1">
          <mxGeometry width="50" height="50" relative="1" as="geometry">
            <mxPoint x="400" y="168.82999999999998" as="sourcePoint" />
            <mxPoint x="440" y="168.82999999999998" as="targetPoint" />
          </mxGeometry>
        </mxCell>
        <mxCell id="feag8_f_9WW_3Zf_LPH9-46" value="" style="endArrow=block;startArrow=none;html=1;rounded=0;strokeColor=#323C40;startFill=0;endFill=1;entryX=0;entryY=0.5;entryDx=0;entryDy=0;exitX=0.5;exitY=0;exitDx=0;exitDy=0;" edge="1" parent="1">
          <mxGeometry width="50" height="50" relative="1" as="geometry">
            <mxPoint x="390" y="109" as="sourcePoint" />
            <mxPoint x="470" y="48.829999999999984" as="targetPoint" />
            <Array as="points">
              <mxPoint x="390" y="49" />
            </Array>
          </mxGeometry>
        </mxCell>
        <mxCell id="feag8_f_9WW_3Zf_LPH9-47" value="" style="endArrow=block;startArrow=block;html=1;rounded=0;strokeColor=#323C40;startFill=1;endFill=1;entryX=0;entryY=0.5;entryDx=0;entryDy=0;exitX=1;exitY=0.5;exitDx=0;exitDy=0;" edge="1" parent="1">
          <mxGeometry width="50" height="50" relative="1" as="geometry">
            <mxPoint x="280" y="168.82999999999998" as="sourcePoint" />
            <mxPoint x="320" y="168.82999999999998" as="targetPoint" />
          </mxGeometry>
        </mxCell>
        <mxCell id="feag8_f_9WW_3Zf_LPH9-48" value="" style="endArrow=block;startArrow=none;html=1;rounded=0;strokeColor=#323C40;startFill=0;endFill=1;entryX=0;entryY=0.5;entryDx=0;entryDy=0;" edge="1" parent="1">
          <mxGeometry width="50" height="50" relative="1" as="geometry">
            <mxPoint x="240" y="189" as="sourcePoint" />
            <mxPoint x="280" y="328.83" as="targetPoint" />
            <Array as="points">
              <mxPoint x="240" y="329" />
            </Array>
          </mxGeometry>
        </mxCell>
        <mxCell id="feag8_f_9WW_3Zf_LPH9-26" value="USB" style="rounded=0;whiteSpace=wrap;html=1;fillColor=#D9B08C;strokeColor=#F7EFE8;fontColor=#323C40;fontFamily=Calibri;" vertex="1" parent="1">
          <mxGeometry x="200" y="149" width="80" height="40" as="geometry" />
        </mxCell>
        <mxCell id="feag8_f_9WW_3Zf_LPH9-49" value="" style="endArrow=block;startArrow=none;html=1;rounded=0;strokeColor=#323C40;startFill=0;endFill=1;exitX=1;exitY=0.5;exitDx=0;exitDy=0;entryX=0.75;entryY=1;entryDx=0;entryDy=0;" edge="1" parent="1" source="feag8_f_9WW_3Zf_LPH9-28" target="feag8_f_9WW_3Zf_LPH9-22">
          <mxGeometry width="50" height="50" relative="1" as="geometry">
            <mxPoint x="340" y="229" as="sourcePoint" />
            <mxPoint x="530" y="319" as="targetPoint" />
            <Array as="points">
              <mxPoint x="380" y="329" />
            </Array>
          </mxGeometry>
        </mxCell>
        <mxCell id="feag8_f_9WW_3Zf_LPH9-50" value="" style="endArrow=block;startArrow=none;html=1;rounded=0;strokeColor=#323C40;startFill=0;endFill=1;entryX=0.25;entryY=1;entryDx=0;entryDy=0;" edge="1" parent="1" target="feag8_f_9WW_3Zf_LPH9-1">
          <mxGeometry width="50" height="50" relative="1" as="geometry">
            <mxPoint x="380" y="329" as="sourcePoint" />
            <mxPoint x="390" y="239" as="targetPoint" />
            <Array as="points">
              <mxPoint x="470" y="329" />
            </Array>
          </mxGeometry>
        </mxCell>
        <mxCell id="feag8_f_9WW_3Zf_LPH9-51" value="" style="endArrow=block;startArrow=none;html=1;rounded=0;strokeColor=#323C40;startFill=0;endFill=1;exitX=0.25;exitY=0;exitDx=0;exitDy=0;" edge="1" parent="1">
          <mxGeometry width="50" height="50" relative="1" as="geometry">
            <mxPoint x="359.52" y="69" as="sourcePoint" />
            <mxPoint x="359.52" y="109" as="targetPoint" />
            <Array as="points" />
          </mxGeometry>
        </mxCell>
        <mxCell id="feag8_f_9WW_3Zf_LPH9-52" value="" style="endArrow=block;startArrow=none;html=1;rounded=0;strokeColor=#323C40;startFill=0;endFill=1;entryX=0.25;entryY=1;entryDx=0;entryDy=0;" edge="1" parent="1" target="feag8_f_9WW_3Zf_LPH9-27">
          <mxGeometry width="50" height="50" relative="1" as="geometry">
            <mxPoint x="620" y="329" as="sourcePoint" />
            <mxPoint x="770" y="229" as="targetPoint" />
            <Array as="points">
              <mxPoint x="700" y="329" />
            </Array>
          </mxGeometry>
        </mxCell>
        <mxCell id="feag8_f_9WW_3Zf_LPH9-54" value="" style="endArrow=block;startArrow=none;html=1;rounded=0;strokeColor=#323C40;startFill=0;endFill=1;entryX=0.25;entryY=1;entryDx=0;entryDy=0;" edge="1" parent="1">
          <mxGeometry width="50" height="50" relative="1" as="geometry">
            <mxPoint x="470" y="329" as="sourcePoint" />
            <mxPoint x="620" y="229" as="targetPoint" />
            <Array as="points">
              <mxPoint x="620" y="329" />
            </Array>
          </mxGeometry>
        </mxCell>
        <mxCell id="feag8_f_9WW_3Zf_LPH9-55" value="" style="endArrow=block;startArrow=none;html=1;rounded=0;strokeColor=#323C40;startFill=0;endFill=1;entryX=0.25;entryY=1;entryDx=0;entryDy=0;exitX=0.25;exitY=0;exitDx=0;exitDy=0;" edge="1" parent="1">
          <mxGeometry width="50" height="50" relative="1" as="geometry">
            <mxPoint x="700" y="179" as="sourcePoint" />
            <mxPoint x="700" y="149" as="targetPoint" />
            <Array as="points" />
          </mxGeometry>
        </mxCell>
        <mxCell id="feag8_f_9WW_3Zf_LPH9-56" value="Display" style="rounded=0;whiteSpace=wrap;html=1;fillColor=#A9CBD9;strokeColor=#a9cbd9;fontColor=#323C40;fontFamily=Calibri;" vertex="1" parent="1">
          <mxGeometry x="470" y="28" width="120" height="40" as="geometry" />
        </mxCell>
      </root>
    </mxGraphModel>
  </diagram>
</mxfile>
